<?xml version="1.0" encoding="UTF-8" standalone="no"?>
<svg width="740px" height="367px" viewBox="0 0 740 367" version="1.1" xmlns="http://www.w3.org/2000/svg" xmlns:xlink="http://www.w3.org/1999/xlink" xmlns:sketch="http://www.bohemiancoding.com/sketch/ns">
    <!-- Generator: Sketch 3.0.4 (8053) - http://www.bohemiancoding.com/sketch -->
    <title>broccoli-taco-logo 2</title>
    <desc>Created with Sketch.</desc>
    <defs></defs>
    <g id="Page-1" stroke="none" stroke-width="1" fill="none" fill-rule="evenodd" sketch:type="MSPage">
        <path d="M354.920889,341.755068 C532.600757,344.603488 711.294857,404.701858 711.294857,326.29772 C711.294857,135.401242 560.226777,24 369.337864,24 C178.448951,24 29.5741957,135.401242 29.574196,326.29772 C29.5741961,397.785367 187.256514,339.067208 354.920889,341.755068 Z" id="Oval-6" stroke="#979797" fill="#7ED321" sketch:type="MSShapeGroup"></path>
        <circle id="Oval-2" fill="#7ED321" sketch:type="MSShapeGroup" cx="518" cy="108" r="74"></circle>
        <circle id="Oval-4" fill="#7ED321" sketch:type="MSShapeGroup" cx="370" cy="74" r="74"></circle>
        <circle id="Oval-11" fill="#7ED321" sketch:type="MSShapeGroup" cx="148" cy="140" r="74"></circle>
        <circle id="Oval-12" fill="#7ED321" sketch:type="MSShapeGroup" cx="222" cy="108" r="74"></circle>
        <circle id="Oval-13" fill="#7ED321" sketch:type="MSShapeGroup" cx="103" cy="214" r="74"></circle>
        <circle id="Oval-5" fill="#7ED321" sketch:type="MSShapeGroup" cx="666" cy="288" r="74"></circle>
        <circle id="Oval-7" fill="#7ED321" sketch:type="MSShapeGroup" cx="592" cy="163" r="74"></circle>
        <circle id="Oval-8" fill="#7ED321" sketch:type="MSShapeGroup" cx="646" cy="214" r="74"></circle>
        <circle id="Oval-9" fill="#7ED321" sketch:type="MSShapeGroup" cx="438" cy="89" r="74"></circle>
        <circle id="Oval-10" fill="#7ED321" sketch:type="MSShapeGroup" cx="290" cy="89" r="74"></circle>
        <circle id="Oval-3" fill="#7ED321" sketch:type="MSShapeGroup" cx="74" cy="288" r="74"></circle>
    </g>
</svg>