<?xml version="1.0" encoding="UTF-8" standalone="no"?>
<svg width="63px" height="37px" viewBox="0 0 63 37" version="1.1" xmlns="http://www.w3.org/2000/svg" xmlns:xlink="http://www.w3.org/1999/xlink" xmlns:sketch="http://www.bohemiancoding.com/sketch/ns">
    <!-- Generator: Sketch 3.0.4 (8053) - http://www.bohemiancoding.com/sketch -->
    <title>broccoli-taco-logo</title>
    <desc>Created with Sketch.</desc>
    <defs></defs>
    <g id="Page-1" stroke="none" stroke-width="1" fill="none" fill-rule="evenodd" sketch:type="MSPage">
        <g id="broccoli-taco-logo" sketch:type="MSLayerGroup" transform="translate(1.000000, 1.000000)" fill="#0CA300">
            <path d="M23.5,25.742 C22.837,26.292 21.997,26.635 21.069,26.635 C18.954,26.635 17.24,24.921 17.24,22.807 C17.24,21.435 17.967,20.242 19.051,19.565 C17.93,18.763 17.193,17.458 17.193,15.974 C17.193,13.532 19.172,11.552 21.614,11.552 C21.815,11.552 22.006,11.586 22.199,11.611 C23.319,8.206 26.519,5.745 30.299,5.745 C33.08,5.745 35.544,7.083 37.101,9.142 C37.457,9.075 37.824,9.036 38.199,9.036 C41.467,9.036 44.115,11.685 44.115,14.952 C44.115,16.798 43.27,18.444 41.946,19.53 C43.065,20.198 43.822,21.408 43.822,22.807 C43.822,24.921 42.108,26.635 39.993,26.635 C38.821,26.635 37.784,26.097 37.082,25.267 C34.717,29.715 34.501,33.828 34.546,35.657 L61.759,35.657 C61.759,15.885 47.833,-0.144 30.654,-0.144 C13.475,-0.144 -0.451,15.885 -0.451,35.657 L27.448,35.657 C27.2,31.237 25.38,27.962 23.5,25.742" id="Fill-1" sketch:type="MSShapeGroup"></path>
            <path d="M26.036,24.546 C25.682,24.546 25.346,24.48 25.022,24.387 C27.751,26.68 28.856,29.833 28.856,29.833 L28.996,23.184 C28.982,23.152 28.961,23.125 28.947,23.093 C28.275,23.971 27.227,24.546 26.036,24.546" id="Fill-2" sketch:type="MSShapeGroup"></path>
            <path d="M32.843,25.665 C32.515,25.665 32.2,25.619 31.894,25.549 L32.113,31.031 C32.477,28.751 33.209,26.921 34.101,25.453 C33.702,25.578 33.284,25.665 32.843,25.665" id="Fill-3" sketch:type="MSShapeGroup"></path>
        </g>
    </g>
</svg>